<svg width="125" height="113" viewBox="0 0 125 113" fill="none" xmlns="http://www.w3.org/2000/svg">
<path d="M125 90.5717C124.978 95.9238 122.974 99.7051 119.745 101.478L104.738 109.691C107.978 107.919 109.982 104.148 110.004 98.785C110.037 88.653 102.935 76.4339 93.8168 70.2289C93.8502 59.4348 85.8011 46.2957 75.8372 40.8762C71.8516 38.7106 68.1667 38.1047 65.183 38.8453C60.6408 27.6472 52.0128 17.0551 42.0823 11.6468C34.6901 7.62992 27.9992 7.25964 23.1675 9.90767L38.1635 1.69429C42.9952 -0.953743 49.6861 -0.583467 57.0783 3.44468C66.9977 8.84173 75.6368 19.4451 80.179 30.6543C83.1738 29.9138 86.8476 30.5085 90.8332 32.6852C100.797 38.1047 108.835 51.2439 108.802 62.038C117.931 68.2317 125.033 80.4396 125 90.5717Z" fill="#89C2F3"/>
<path d="M29.8807 15.9106L16.087 24.0006C11.8788 22.1043 8.11589 22.138 5.27701 23.7986L19.0818 15.7087C21.9095 14.048 25.6724 14.0144 29.8807 15.9106Z" fill="#89C2F3"/>
<path d="M43.7745 11.5234C53.6271 16.9317 62.1994 27.535 66.6971 38.7667C69.6696 38.0262 73.3212 38.6321 77.2733 40.7976C87.1593 46.2171 95.1527 59.3787 95.1193 70.184C104.17 76.4002 111.229 88.6193 111.195 98.7738C111.162 109.568 103.124 113.933 93.2379 108.502L19.4603 68.0073C8.68365 62.0941 -0.0333945 47.7431 4.10064e-06 35.9616C0.0334027 25.0217 7.62603 20.1407 17.3562 24.2699C18.1689 9.52618 29.7025 3.79252 43.7745 11.5234Z" fill="#CFE5F9"/>
<path d="M47.6376 100.916L10.0641 79.0582C9.5743 78.7777 9.12898 78.744 8.81726 78.9348L35.0352 63.5851C35.3469 63.3944 35.7922 63.4281 36.2821 63.7086L73.8556 85.5773C74.2675 85.8129 74.6349 86.1944 74.9243 86.6432L48.7175 101.982C48.4169 101.544 48.0495 101.163 47.6376 100.916Z" fill="#028F91"/>
<path d="M75.57 95.6308C75.57 96.1806 75.3696 96.5734 75.069 96.7529L48.8511 112.102C49.1628 111.923 49.3521 111.53 49.3521 110.969L49.3743 103.956C49.3743 103.306 49.1071 102.576 48.7064 101.982L74.9243 86.632C75.3251 87.2379 75.5923 87.956 75.5923 88.6068L75.57 95.6308Z" fill="#028F91"/>
<path d="M10.0641 79.0582C9.09557 78.4972 8.31627 78.946 8.31627 80.068L8.29401 87.092C8.29401 88.2029 9.06218 89.5718 10.0307 90.1328L47.6042 112.001C48.5728 112.562 49.3521 112.102 49.3521 110.992L49.3743 103.968C49.3743 102.846 48.6062 101.488 47.6376 100.927L10.0641 79.0582Z" fill="#017174"/>
<path d="M29.0457 94.5312L46.3128 104.574V107.379L29.0457 97.3139V94.5312Z" fill="black"/>
<path d="M19.5605 88.4609C18.8925 88.0682 18.3581 88.3936 18.347 89.1566C18.347 89.4596 18.4249 89.785 18.5585 90.0879C18.7701 90.5704 19.1374 91.0192 19.5494 91.2548C19.9501 91.4905 20.3175 91.468 20.5402 91.2324C20.6738 91.0865 20.7628 90.8621 20.7628 90.5592C20.7628 89.785 20.2173 88.8424 19.5605 88.4609ZM15.831 86.2842C15.163 85.8915 14.6286 86.2169 14.6175 86.9798C14.6175 87.2828 14.6954 87.6082 14.829 87.9111C15.0405 88.3936 15.4079 88.8424 15.8198 89.0781C16.2206 89.3137 16.588 89.2913 16.8107 89.0556C16.9443 88.9098 17.0333 88.6854 17.0333 88.3824C17.0333 87.6194 16.4989 86.6769 15.831 86.2842ZM12.1126 84.1186C11.4446 83.7259 10.8991 84.0401 10.8991 84.8031C10.8991 85.106 10.977 85.4314 11.1218 85.7344C11.3444 86.2169 11.7007 86.6657 12.1126 86.9013C12.5134 87.1369 12.8808 87.1145 13.1034 86.8789C13.237 86.733 13.3261 86.5086 13.3261 86.2056C13.3149 85.4539 12.7694 84.5114 12.1126 84.1186Z" fill="black"/>
<path d="M49.1183 89.7513L72.4639 76.2082V85.1958L50.3652 98.032C49.6638 98.4472 48.7954 98.436 48.0941 98.032L12.2239 77.0049L12.1126 68.0846L49.1183 89.7513Z" fill="#105A5B"/>
<path d="M47.6376 84.1074L10.0641 62.2387C9.5743 61.9582 9.12899 61.9357 8.8284 62.1153L35.0463 46.7657C35.3581 46.5749 35.8034 46.6086 36.2932 46.8891L73.8667 68.7578C74.2786 68.9934 74.646 69.3749 74.9355 69.8237L48.7175 85.1733C48.4169 84.7245 48.0495 84.343 47.6376 84.1074Z" fill="#028F91"/>
<path d="M75.57 78.8226C75.57 79.3724 75.3696 79.7651 75.069 79.9446L48.8511 95.2942C49.1628 95.1147 49.3521 94.722 49.3521 94.1609L49.3743 87.1481C49.3743 86.4974 49.1071 85.768 48.7064 85.1733L74.9243 69.8237C75.3251 70.4296 75.5923 71.1477 75.5923 71.7985L75.57 78.8226Z" fill="#028F91"/>
<path d="M10.0641 62.2387C9.09557 61.6777 8.31627 62.1265 8.31627 63.2486L8.29401 70.2726C8.29401 71.3834 9.06218 72.7523 10.0307 73.3133L47.6042 95.1708C48.5728 95.7318 49.3521 95.2718 49.3521 94.161L49.3743 87.1369C49.3743 86.0149 48.6062 84.6572 47.6376 84.0962L10.0641 62.2387Z" fill="#017174"/>
<path d="M29.0457 77.7117L46.3128 87.7653V90.5704L29.0457 80.5056V77.7117Z" fill="black"/>
<path d="M19.5605 71.6415C18.8925 71.2487 18.3581 71.5741 18.347 72.3371C18.347 72.6401 18.4249 72.9655 18.5585 73.2684C18.7701 73.7509 19.1374 74.1997 19.5494 74.4354C19.9501 74.671 20.3175 74.6486 20.5402 74.4129C20.6738 74.2671 20.7628 74.0426 20.7628 73.7397C20.7628 72.9767 20.2173 72.0342 19.5605 71.6415ZM15.831 69.4759C15.163 69.0832 14.6286 69.4086 14.6175 70.1716C14.6175 70.4745 14.6954 70.7999 14.829 71.1029C15.0405 71.5854 15.4079 72.0342 15.8198 72.2698C16.2206 72.5054 16.588 72.483 16.8107 72.2474C16.9443 72.1015 17.0333 71.8771 17.0333 71.5741C17.0333 70.8111 16.4989 69.8686 15.831 69.4759ZM12.1126 67.3103C11.4446 66.9176 10.8991 67.2318 10.8991 67.9948C10.8991 68.2978 10.977 68.6231 11.1218 68.9261C11.3444 69.4086 11.7007 69.8574 12.1126 70.093C12.5134 70.3287 12.8808 70.3062 13.1034 70.0706C13.237 69.9247 13.3261 69.7003 13.3261 69.3974C13.3149 68.6456 12.7694 67.7031 12.1126 67.3103Z" fill="black"/>
<path d="M49.1183 72.943L72.4639 59.3999V68.3875L50.3652 81.2238C49.6638 81.6389 48.7954 81.6277 48.0941 81.2238L12.2239 60.1966L12.1126 51.2763L49.1183 72.943Z" fill="#105A5B"/>
<path d="M47.6376 67.2991L10.0641 45.4304C9.5743 45.1499 9.12899 45.1275 8.8284 45.307L35.0463 29.9574C35.3581 29.7666 35.8034 29.8003 36.2932 30.0808L73.8667 51.9495C74.2786 52.1852 74.646 52.5667 74.9355 53.0155L48.7175 68.3651C48.4169 67.9163 48.0495 67.5348 47.6376 67.2991Z" fill="#028F91"/>
<path d="M75.57 62.0143C75.57 62.5641 75.3696 62.9568 75.069 63.1363L48.8511 78.486C49.1628 78.3064 49.3521 77.9137 49.3521 77.3527L49.3743 70.3399C49.3743 69.6891 49.1071 68.9598 48.7064 68.3651L74.9243 53.0155C75.3251 53.6214 75.5923 54.3395 75.5923 54.9903L75.57 62.0143Z" fill="#028F91"/>
<path d="M10.0641 45.4304C9.09557 44.8694 8.31627 45.3182 8.31627 46.4403L8.29401 53.4643C8.29401 54.5751 9.06218 55.944 10.0307 56.505L47.6042 78.3737C48.5728 78.9348 49.3521 78.4747 49.3521 77.3639L49.3743 70.3399C49.3743 69.2178 48.6062 67.8602 47.6376 67.2991L10.0641 45.4304Z" fill="#017174"/>
<path d="M29.0457 60.9034L46.3128 70.957V73.7621L29.0457 63.6973V60.9034Z" fill="black"/>
<path d="M19.5605 54.8332C18.8925 54.4405 18.3581 54.7659 18.347 55.5289C18.347 55.8318 18.4249 56.1572 18.5585 56.4602C18.7701 56.9426 19.1374 57.3915 19.5494 57.6271C19.9501 57.8627 20.3175 57.8403 20.5402 57.6046C20.6738 57.4588 20.7628 57.2344 20.7628 56.9314C20.7628 56.1684 20.2173 55.2147 19.5605 54.8332ZM15.831 52.6676C15.163 52.2749 14.6286 52.6003 14.6175 53.3633C14.6175 53.6663 14.6954 53.9917 14.829 54.2946C15.0405 54.7771 15.4079 55.2259 15.8198 55.4615C16.2206 55.6972 16.588 55.6747 16.8107 55.4391C16.9443 55.2932 17.0333 55.0688 17.0333 54.7659C17.0333 54.0029 16.4989 53.0491 15.831 52.6676ZM12.1126 50.5021C11.4446 50.1094 10.8991 50.4235 10.8991 51.1865C10.8991 51.4895 10.977 51.8149 11.1218 52.1178C11.3444 52.6003 11.7007 53.0491 12.1126 53.2848C12.5134 53.5204 12.8808 53.498 13.1034 53.2623C13.237 53.1165 13.3261 52.8921 13.3261 52.5891C13.3149 51.8373 12.7694 50.8836 12.1126 50.5021Z" fill="black"/>
</svg>
